<svg width="15" height="15" viewBox="0 0 15 15" fill="none" xmlns="http://www.w3.org/2000/svg">
<g filter="url(#filter0_gf_212_45)">
<path d="M13.3942 7.01152L12.9782 7.68752L12.3282 7.60952H11.3662L10.9242 7.45352L8.81816 7.84352C8.45416 7.89552 8.24616 8.20752 8.24616 8.57152C8.24616 8.93552 8.40216 9.66352 8.40216 9.66352L8.29816 10.2875L8.40216 11.5875C8.42816 11.8475 8.42816 12.1075 8.42816 12.3155C8.42816 13.5375 8.16816 14.0055 7.62216 14.0055C7.10216 14.0055 6.71216 13.3295 6.71216 12.7055C6.71216 12.3675 6.92016 11.7435 6.92016 11.7435L6.58216 10.2615L6.60816 8.46752C6.60816 8.07752 6.29616 7.76552 5.95816 7.76552C5.51616 7.76552 4.34616 8.33752 4.34616 8.33752L3.15016 8.10352L1.85016 8.18152H1.82416C1.43416 8.18152 1.25216 7.68752 1.25216 7.32352C1.25216 6.67352 2.26616 6.20552 3.12416 6.20552L4.89216 6.23152L5.43816 6.12752L6.63416 6.28352L6.73816 5.13952L6.94616 4.64552L6.84216 1.96752C6.84216 1.94152 6.84216 1.91552 6.84216 1.88952C6.84216 1.47352 7.23216 1.05752 7.57016 1.05752C8.24616 1.05752 8.32416 1.91552 8.32416 2.53952V4.59352C8.32416 4.74952 8.32416 4.90552 8.32416 5.06152C8.32416 5.50352 8.37616 5.89352 8.92216 5.89352C9.57216 5.89352 10.6902 5.45152 11.1582 5.45152C11.6002 5.45152 12.3542 5.89352 12.3542 5.89352L13.1602 6.12752L13.3942 7.01152Z" fill="#808D31"/>
</g>
<defs>
<filter id="filter0_gf_212_45" x="0.451953" y="0.257526" width="13.7421" height="14.548" filterUnits="userSpaceOnUse" color-interpolation-filters="sRGB">
<feFlood flood-opacity="0" result="BackgroundImageFix"/>
<feBlend mode="normal" in="SourceGraphic" in2="BackgroundImageFix" result="shape"/>
<feTurbulence type="fractalNoise" baseFrequency="2 2" numOctaves="3" seed="6026" />
<feDisplacementMap in="shape" scale="1.6000000238418579" xChannelSelector="R" yChannelSelector="G" result="displacedImage" width="100%" height="100%" />
<feMerge result="effect1_texture_212_45">
<feMergeNode in="displacedImage"/>
</feMerge>
<feGaussianBlur stdDeviation="0.15" result="effect2_foregroundBlur_212_45"/>
</filter>
</defs>
</svg>
